<?xml version="1.0" encoding="UTF-8" standalone="no"?>
<!-- Created with Inkscape (http://www.inkscape.org/) -->

<svg
   xmlns:dc="http://purl.org/dc/elements/1.1/"
   xmlns:cc="http://creativecommons.org/ns#"
   xmlns:rdf="http://www.w3.org/1999/02/22-rdf-syntax-ns#"
   xmlns:svg="http://www.w3.org/2000/svg"
   xmlns="http://www.w3.org/2000/svg"
   xmlns:sodipodi="http://sodipodi.sourceforge.net/DTD/sodipodi-0.dtd"
   xmlns:inkscape="http://www.inkscape.org/namespaces/inkscape"
   width="25mm"
   height="8mm"
   viewBox="0 0 25 8"
   version="1.1"
   id="svg8"
   inkscape:version="0.92.4 5da689c313, 2019-01-14"
   sodipodi:docname="logo.svg">
  <defs
     id="defs2" />
  <sodipodi:namedview
     id="base"
     pagecolor="#ffffff"
     bordercolor="#666666"
     borderopacity="1.0"
     inkscape:pageopacity="0.0"
     inkscape:pageshadow="2"
     inkscape:zoom="5.6568543"
     inkscape:cx="42.759358"
     inkscape:cy="12.730779"
     inkscape:document-units="mm"
     inkscape:current-layer="layer1"
     showgrid="false"
     inkscape:window-width="1633"
     inkscape:window-height="1025"
     inkscape:window-x="67"
     inkscape:window-y="27"
     inkscape:window-maximized="0" />
  <metadata
     id="metadata5">
    <rdf:RDF>
      <cc:Work
         rdf:about="">
        <dc:format>image/svg+xml</dc:format>
        <dc:type
           rdf:resource="http://purl.org/dc/dcmitype/StillImage" />
        <dc:title></dc:title>
      </cc:Work>
    </rdf:RDF>
  </metadata>
  <g
     inkscape:label="Layer 1"
     inkscape:groupmode="layer"
     id="layer1"
     transform="translate(0,-289)">
    <g
       id="g943"
       transform="translate(-79.744598,261.32654)">
      <g
         transform="translate(-0.15200955,-0.02338609)"
         id="g920">
        <g
           aria-label="DIAF"
           style="font-style:normal;font-weight:normal;font-size:10.58333302px;line-height:1.25;font-family:sans-serif;letter-spacing:0px;word-spacing:0px;fill:#000000;fill-opacity:1;stroke:none;stroke-width:0.26458332"
           id="text817-1">
          <path
             d="m 88.314287,34.89049 v -6.444051 q 0,-0.201538 0.144694,-0.346232 0.144694,-0.144694 0.346233,-0.144694 h 0.961181 q 0.211874,0 0.3514,0.144694 0.144694,0.144694 0.144694,0.346232 v 6.433716 q 0,0.201538 -0.149862,0.346232 -0.144694,0.139526 -0.346232,0.139526 h -0.961181 q -0.201539,0 -0.346233,-0.134358 -0.144694,-0.139527 -0.144694,-0.341065 z"
             style="font-style:normal;font-variant:normal;font-weight:normal;font-stretch:normal;font-family:'Days One';-inkscape-font-specification:'Days One';stroke-width:0.26458332"
             id="path863"
             inkscape:connector-curvature="0" />
        </g>
        <path
           d="m 98.916251,34.964771 -1.29708,-4.919596 q -0.5271,-2.010213 -3.43131,-2.015381 h -2.785362 q -0.1912,0 -0.31523,0.144694 -0.12919,0.144694 -0.12919,0.335897 v 6.454386 q 0,0.201538 0.14469,0.341065 0.1447,0.134358 0.34624,0.134358 h 0.97151 q 0.21188,0 0.3514,-0.134358 0.13436,-0.139527 0.13436,-0.3514 V 33.65219 h 3.674192 l 0.34624,1.302246 q 0.0517,0.211873 0.23254,0.3514 0.18087,0.134358 0.38241,0.134358 h 1.01802 q 0.20154,0 0.28939,-0.113688 0.0878,-0.118856 0.0878,-0.206705 -0.005,-0.08785 -0.0207,-0.15503 z m -2.71818,-2.775024 h -3.291792 v -2.69751 h 1.472782 q 0.49609,0 0.86816,0.284221 0.36691,0.279052 0.4961,0.754475 z"
           style="font-style:normal;font-variant:normal;font-weight:normal;font-stretch:normal;font-size:10.58333302px;line-height:1.25;font-family:'Days One';-inkscape-font-specification:'Days One';letter-spacing:0px;word-spacing:0px;fill:#000000;fill-opacity:1;stroke:none;stroke-width:0.26458332"
           id="path865"
           inkscape:connector-curvature="0" />
        <path
           d="m 99.445396,34.939966 -1.305219,-5.289768 c -0.309865,-1.156433 0.09983,-1.624539 1.350069,-1.624539 h 4.816864 c 0.13435,0 0.24804,0.04823 0.34106,0.144694 0.0965,0.09646 0.14469,0.211873 0.14469,0.346232 v 0.485759 c 0,0.134359 -0.0482,0.249769 -0.14469,0.346232 -0.093,0.09302 -0.20671,0.139526 -0.34106,0.139526 h -4.501017 l 0.529167,1.819011 h 2.60552 c 0.13436,0 0.24805,0.04823 0.34106,0.144694 0.0965,0.09646 0.1447,0.210151 0.1447,0.341064 v 0.490926 c 0,0.134359 -0.0482,0.249769 -0.1447,0.346232 -0.093,0.09302 -0.2067,0.139527 -0.34106,0.139527 h -2.07636 l 0.52917,2.17041 c 0.0335,0.137229 -0.0482,0.260104 -0.1447,0.356567 -0.093,0.09302 -0.2067,0.139526 -0.34106,0.139526 h -0.971517 c -0.13436,0 -0.24977,-0.04651 -0.34623,-0.139526 -0.0965,-0.09646 -0.110849,-0.21943 -0.144687,-0.356567 z"
           style="font-style:normal;font-variant:normal;font-weight:normal;font-stretch:normal;font-size:10.58333302px;line-height:1.25;font-family:'Days One';-inkscape-font-specification:'Days One';letter-spacing:0px;word-spacing:0px;fill:#000000;fill-opacity:1;stroke:none;stroke-width:0.26458332"
           id="path867"
           inkscape:connector-curvature="0"
           sodipodi:nodetypes="sccscsscsccscsscscscsscs" />
      </g>
      <path
         d="m 79.848346,34.865096 v -6.433715 q 0,-0.211874 0.144694,-0.356568 0.144694,-0.144694 0.346232,-0.144694 h 2.888713 q 2.242757,0 3.260782,0.89917 1.023194,0.894002 1.023194,2.811198 0,1.912028 -1.023194,2.80603 -1.018025,0.894002 -3.260782,0.894002 h -2.888713 q -0.201538,0 -0.346232,-0.134358 -0.144694,-0.139527 -0.144694,-0.341065 z m 1.948201,-0.98702 h 1.374594 q 1.390096,0 1.891357,-0.506429 0.501261,-0.506429 0.501261,-1.73116 0,-1.229899 -0.501261,-1.736328 -0.501261,-0.511597 -1.891357,-0.511597 h -1.374594 z"
         style="font-style:normal;font-variant:normal;font-weight:normal;font-stretch:normal;font-size:10.58333302px;line-height:1.25;font-family:'Days One';-inkscape-font-specification:'Days One';letter-spacing:0px;word-spacing:0px;fill:#000000;fill-opacity:1;stroke:none;stroke-width:0.26458332"
         id="path861-3"
         inkscape:connector-curvature="0" />
    </g>
  </g>
</svg>
